<svg width="32" height="32" viewBox="0 0 143 143" fill="none" xmlns="http://www.w3.org/2000/svg"  xmlns:xlink="http://www.w3.org/1999/xlink">
<circle cx="71.5" cy="71.5" r="71.5" fill="black"/>
<path d="M62.4537 112H33V108.644C36.1045 107.41 39.2866 106.484 42.5463 105.867V37.2486C38.8985 36.7086 35.7164 35.7443 33 34.3557V31H62.4537V34.3557C61.1343 35.05 59.7373 35.6286 58.2627 36.0914C56.7881 36.5543 55.2746 36.94 53.7224 37.2486V67.45H90.2776V37.2486C88.6478 36.8629 87.0955 36.4386 85.6209 35.9757C84.2239 35.5129 82.8657 34.9729 81.5463 34.3557V31H111V34.3557C109.603 35.1271 108.051 35.7443 106.343 36.2071C104.713 36.5929 103.084 36.94 101.454 37.2486V105.867C103.239 106.176 104.946 106.561 106.576 107.024C108.206 107.487 109.681 108.027 111 108.644V112H81.5463V108.644C84.3403 107.41 87.2507 106.484 90.2776 105.867V73.4671H53.7224V105.867C55.2746 106.176 56.7881 106.561 58.2627 107.024C59.7373 107.487 61.1343 108.027 62.4537 108.644V112Z" fill="white"/>
</svg>